# xmcd CD database file
#
# Track frame offsets:
#	152
#	24709
#	44722
#	63148
#	101826
#	141093
#	164378
#	170851
#	192310
#	215981
#	259385
#
# Disc length: 3862 seconds
#
# Revision: 1
# Processed by: cddbd v1.4PL0 Copyright (c) Steve Scherf et al.
# Submitted via: CDex 1.40Release
#
DISCID=b20f140b
DTITLE=Various Artist - The Best of Sassy Ann's Blue Jam
DYEAR=1998
DGENRE=Blues
TTITLE0=Prettiest Little Thing
TTITLE1=Cold Shot
TTITLE2=Shake Your Boogie
TTITLE3=33 Days, 32 Nights
TTITLE4=Red House
TTITLE5=Crosscut Saw
TTITLE6=(Inrto to Track 8)
TTITLE7=Just Another Crossroads
TTITLE8=Who's Been Talkin'?
TTITLE9=Catfish Blues
TTITLE10=When Something Is Wrong With My Baby
EXTD=YEAR: 1998 ID3G: 0
EXTT0=
EXTT1=
EXTT2=
EXTT3=
EXTT4=
EXTT5=
EXTT6=
EXTT7=
EXTT8=
EXTT9=
EXTT10=
PLAYORDER=
